<?xml version="1.0"?>
<svg xmlns="http://www.w3.org/2000/svg" xmlns:xlink="http://www.w3.org/1999/xlink" xmlns:svgjs="http://svgjs.com/svgjs" version="1.1" width="512" height="512" x="0" y="0" viewBox="0 0 430 430.08" style="enable-background:new 0 0 512 512" xml:space="preserve" class=""><g><path xmlns="http://www.w3.org/2000/svg" d="m64.894531 184.320312h-40.960937v-95.574218l40.960937-27.304688zm0 0" fill="#0969cf" data-original="#ff927d" style="" class=""/><path xmlns="http://www.w3.org/2000/svg" d="m64.894531 191.148438h-40.960937c-3.773438 0-6.828125-3.058594-6.828125-6.828126v-95.574218c0-2.28125 1.140625-4.414063 3.039062-5.679688l40.960938-27.304687c2.09375-1.394531 4.792969-1.53125 7.007812-.339844 2.222657 1.1875 3.605469 3.5 3.605469 6.019531v122.878906c0 3.769532-3.050781 6.828126-6.824219 6.828126zm-34.132812-13.65625h27.304687v-103.292969l-27.304687 18.203125zm0 0" fill="#000000" data-original="#54596e" style="" class=""/><path xmlns="http://www.w3.org/2000/svg" d="m286.285156 341.332031h-164.796875c-23.71875 0-42.941406 17.164063-42.941406 38.339844l-68.265625 43.582031h382.292969l-68.265625-47.972656c0-18.75-17.027344-33.949219-38.023438-33.949219zm0 0" fill="#d8d8d8" data-original="#d8d8d8" style="" class=""/><path xmlns="http://www.w3.org/2000/svg" d="m392.574219 430.078125h-382.292969c-3.035156 0-5.703125-2-6.554688-4.910156-.847656-2.910157.320313-6.039063 2.878907-7.667969l65.296875-41.6875c2.15625-23.105469 23.570312-41.304688 49.585937-41.304688h164.796875c23.367188 0 42.621094 16.332032 44.667969 37.101563l65.546875 46.054687c2.433594 1.714844 3.480469 4.808594 2.578125 7.644532-.890625 2.839844-3.523437 4.769531-6.503906 4.769531zm-358.914063-13.652344h337.324219l-50.605469-35.554687c-1.820312-1.28125-2.898437-3.363282-2.898437-5.585938 0-14.957031-13.992188-27.125-31.191407-27.125h-164.800781c-19.914062 0-36.113281 14.136719-36.113281 31.511719 0 2.328125-1.1875 4.5-3.15625 5.75zm297.472656-41.140625h.066407zm0 0" fill="#000000" data-original="#54596e" style="" class=""/><path xmlns="http://www.w3.org/2000/svg" d="m112.085938 6.828125c-48.683594 0-88.152344 39.46875-88.152344 88.152344v47.789062c0-48.6875 39.46875-88.15625 88.152344-88.15625h82.515624v88.746094h40.957032v-136.53125zm0 0" fill="#0969cf" data-original="#ff927d" style="" class=""/><path xmlns="http://www.w3.org/2000/svg" d="m235.558594 150.1875h-40.957032c-3.773437 0-6.828124-3.058594-6.828124-6.828125v-81.917969h-75.6875c-44.847657 0-81.324219 36.480469-81.324219 81.324219 0 3.769531-3.054688 6.828125-6.828125 6.828125-3.773438 0-6.828125-3.058594-6.828125-6.828125v-47.785156c0-52.375 42.609375-94.980469 94.980469-94.980469h123.472656c3.773437 0 6.828125 3.054688 6.828125 6.828125v136.53125c0 3.769531-3.054688 6.828125-6.828125 6.828125zm-34.132813-13.652344h27.308594v-122.882812h-116.648437c-44.425782 0-80.648438 35.808594-81.320313 80.078125 16.660156-27.511719 46.882813-45.945313 81.320313-45.945313h82.515624c3.773438 0 6.824219 3.058594 6.824219 6.828125zm0 0" fill="#000000" data-original="#54596e" style="" class=""/><path xmlns="http://www.w3.org/2000/svg" d="m244.4375 361.8125h-86.023438c-13.949218 0-25.253906-11.308594-25.253906-25.257812v-56.660157h136.53125v56.660157c0 13.949218-11.304687 25.257812-25.253906 25.257812zm0 0" fill="#ffd578" data-original="#ffd578" style="" class=""/><path xmlns="http://www.w3.org/2000/svg" d="m244.441406 368.640625h-86.027344c-17.6875 0-32.082031-14.394531-32.082031-32.085937v-56.660157c0-3.769531 3.054688-6.828125 6.828125-6.828125h136.53125c3.773438 0 6.828125 3.058594 6.828125 6.828125v56.660157c0 17.691406-14.394531 32.085937-32.078125 32.085937zm-104.453125-81.921875v49.835938c0 10.164062 8.265625 18.433593 18.425781 18.433593h86.027344c10.15625 0 18.425782-8.269531 18.425782-18.433593v-49.835938zm0 0" fill="#000000" data-original="#54596e" style="" class=""/><path xmlns="http://www.w3.org/2000/svg" d="m201.425781 334.507812c64.09375 0 116.054688-51.960937 116.054688-116.054687 0 0-33.339844-157.011719-74.46875-157.011719h-83.171875c-41.125 0-74.464844 157.011719-74.464844 157.011719 0 64.09375 51.957031 116.054687 116.050781 116.054687zm0 0" fill="#ffd578" data-original="#ffd578" style="" class=""/><path xmlns="http://www.w3.org/2000/svg" d="m201.425781 341.332031c-67.753906 0-122.878906-55.121093-122.878906-122.878906 0-.476563.046875-.953125.148437-1.417969 5.757813-27.121094 36.738282-162.421875 81.144532-162.421875h83.171875c44.410156 0 75.386719 135.300781 81.148437 162.421875.101563.464844.148438.941406.148438 1.417969 0 67.757813-55.128906 122.878906-122.882813 122.878906zm-109.226562-122.171875c.382812 59.90625 49.234375 108.519532 109.226562 108.519532 59.992188 0 108.847657-48.613282 109.226563-108.515626-13.445313-62.90625-43.191406-150.898437-67.640625-150.898437h-83.171875c-24.460938 0-54.199219 87.992187-67.640625 150.894531zm0 0" fill="#000000" data-original="#54596e" style="" class=""/><path xmlns="http://www.w3.org/2000/svg" d="m201.425781 47.785156c-64.09375 0-116.050781 51.960938-116.050781 116.054688v34.132812h232.105469v-34.132812c0-64.09375-51.960938-116.054688-116.054688-116.054688zm0 0" fill="#707070" data-original="#a1b7ff" style="" class=""/><path xmlns="http://www.w3.org/2000/svg" d="m317.480469 204.800781h-232.105469c-3.773438 0-6.828125-3.058593-6.828125-6.828125v-34.132812c0-67.757813 55.125-122.878906 122.878906-122.878906 67.753907 0 122.882813 55.121093 122.882813 122.878906v34.132812c0 3.769532-3.054688 6.828125-6.828125 6.828125zm-225.28125-13.652343h218.453125v-27.308594c0-60.226563-49-109.226563-109.226563-109.226563-60.226562 0-109.226562 49-109.226562 109.226563zm0 0" fill="#000000" data-original="#54596e" style="" class=""/><path xmlns="http://www.w3.org/2000/svg" d="m201.425781 117.65625-136.53125 80.316406 136.53125 56.21875 136.535157-56.21875zm0 0" fill="#d8d8d8" data-original="#d8d8d8" style="" class=""/><g xmlns="http://www.w3.org/2000/svg" fill="#54596e"><path d="m201.425781 261.015625c-.878906 0-1.765625-.171875-2.597656-.511719l-136.535156-56.21875c-2.390625-.984375-4.023438-3.246094-4.207031-5.832031-.183594-2.585937 1.113281-5.050781 3.347656-6.363281l136.535156-80.320313c2.132812-1.257812 4.785156-1.257812 6.917969 0l136.535156 80.320313c2.234375 1.3125 3.53125 3.777344 3.347656 6.363281-.179687 2.585937-1.8125 4.847656-4.207031 5.832031l-136.535156 56.21875c-.835938.34375-1.71875.511719-2.601563.511719zm-121.230469-64.125 121.230469 49.914063 121.234375-49.914063-121.234375-71.3125zm0 0" fill="#000000" data-original="#54596e" style="" class=""/><path d="m160.464844 211.625c-3.773438 0-6.824219-3.054688-6.824219-6.824219v-34.132812c0-3.769531 3.050781-6.828125 6.824219-6.828125 3.773437 0 6.828125 3.058594 6.828125 6.828125v34.132812c0 3.769531-3.054688 6.824219-6.828125 6.824219zm0 0" fill="#000000" data-original="#54596e" style="" class=""/><path d="m242.386719 211.625c-3.773438 0-6.828125-3.054688-6.828125-6.824219v-34.132812c0-3.769531 3.054687-6.828125 6.828125-6.828125 3.773437 0 6.828125 3.058594 6.828125 6.828125v34.132812c0 3.769531-3.054688 6.824219-6.828125 6.824219zm0 0" fill="#000000" data-original="#54596e" style="" class=""/><path d="m139.988281 204.800781c-3.773437 0-6.828125-3.058593-6.828125-6.828125v-13.652344c0-3.769531 3.054688-6.828124 6.828125-6.828124 3.773438 0 6.824219 3.058593 6.824219 6.828124v13.652344c0 3.769532-3.050781 6.828125-6.824219 6.828125zm0 0" fill="#000000" data-original="#54596e" style="" class=""/><path d="m262.867188 204.800781c-3.773438 0-6.828126-3.058593-6.828126-6.828125v-13.652344c0-3.769531 3.054688-6.828124 6.828126-6.828124 3.773437 0 6.824218 3.058593 6.824218 6.828124v13.652344c0 3.769532-3.050781 6.828125-6.824218 6.828125zm0 0" fill="#000000" data-original="#54596e" style="" class=""/><path d="m180.945312 218.453125c-3.773437 0-6.824218-3.054687-6.824218-6.828125v-47.785156c0-3.769532 3.050781-6.828125 6.824218-6.828125 3.773438 0 6.828126 3.058593 6.828126 6.828125v47.785156c0 3.773438-3.054688 6.828125-6.828126 6.828125zm0 0" fill="#000000" data-original="#54596e" style="" class=""/><path d="m221.90625 218.453125c-3.773438 0-6.828125-3.054687-6.828125-6.828125v-47.785156c0-3.769532 3.054687-6.828125 6.828125-6.828125s6.828125 3.058593 6.828125 6.828125v47.785156c0 3.773438-3.054687 6.828125-6.828125 6.828125zm0 0" fill="#000000" data-original="#54596e" style="" class=""/><path d="m201.425781 232.105469c-3.773437 0-6.824219-3.054688-6.824219-6.824219v-75.09375c0-3.769531 3.050782-6.828125 6.824219-6.828125 3.773438 0 6.828125 3.058594 6.828125 6.828125v75.09375c0 3.769531-3.054687 6.824219-6.828125 6.824219zm0 0" fill="#000000" data-original="#54596e" style="" class=""/><path d="m228.734375 286.71875h-54.613281c-3.773438 0-6.828125-3.054688-6.828125-6.824219s3.054687-6.828125 6.828125-6.828125h54.613281c3.773437 0 6.824219 3.058594 6.824219 6.828125s-3.050782 6.824219-6.824219 6.824219zm0 0" fill="#000000" data-original="#54596e" style="" class=""/></g><path xmlns="http://www.w3.org/2000/svg" d="m269.691406 423.253906c0-37.703125-30.5625-68.265625-68.265625-68.265625-37.699219 0-68.265625 30.5625-68.265625 68.265625zm0 0" fill="#707070" data-original="#a1b7ff" style="" class=""/><path xmlns="http://www.w3.org/2000/svg" d="m269.691406 430.078125h-136.53125c-3.773437 0-6.828125-3.054687-6.828125-6.824219 0-41.40625 33.6875-75.09375 75.09375-75.09375s75.09375 33.6875 75.09375 75.09375c0 3.769532-3.054687 6.824219-6.828125 6.824219zm-129.324218-13.652344h122.121093c-3.40625-30.675781-29.488281-54.613281-61.058593-54.613281-31.574219 0-57.65625 23.9375-61.0625 54.613281zm0 0" fill="#000000" data-original="#54596e" style="" class=""/><path xmlns="http://www.w3.org/2000/svg" d="m242.386719 423.253906c0-22.621094-18.339844-40.960937-40.960938-40.960937-22.621093 0-40.960937 18.339843-40.960937 40.960937zm0 0" fill="#55a6ff" data-original="#55a6ff" style="" class=""/><path xmlns="http://www.w3.org/2000/svg" d="m242.386719 430.078125h-81.921875c-3.773438 0-6.824219-3.054687-6.824219-6.824219 0-26.351562 21.4375-47.789062 47.785156-47.789062 26.347657 0 47.789063 21.4375 47.789063 47.789062 0 3.769532-3.054688 6.824219-6.828125 6.824219zm-74.40625-13.652344h66.890625c-3.171875-15.558593-16.960938-27.304687-33.445313-27.304687-16.488281 0-30.273437 11.746094-33.445312 27.304687zm0 0" fill="#000000" data-original="#54596e" style="" class=""/><path xmlns="http://www.w3.org/2000/svg" d="m6.867188 419.839844c52.785156 0 95.574218-42.789063 95.574218-95.574219v-13.652344c-52.785156 0-95.574218 42.789063-95.574218 95.574219zm0 0" fill="#707070" data-original="#a1b7ff" style="" class=""/><path xmlns="http://www.w3.org/2000/svg" d="m6.867188 426.667969c-3.773438 0-6.8281255-3.058594-6.8281255-6.828125v-13.652344c0-56.464844 45.9335935-102.402344 102.4023435-102.402344 3.773438 0 6.824219 3.058594 6.824219 6.828125v13.652344c0 56.464844-45.933594 102.402344-102.398437 102.402344zm88.746093-108.96875c-45.757812 3.496093-81.921875 41.851562-81.921875 88.488281v6.566406c45.761719-3.496094 81.921875-41.847656 81.921875-88.488281zm0 0" fill="#000000" data-original="#54596e" style="" class=""/><path xmlns="http://www.w3.org/2000/svg" d="m392.574219 423.253906c-52.785157 0-95.574219-42.789062-95.574219-95.574218v-13.652344c52.785156 0 95.574219 42.789062 95.574219 95.574218zm0 0" fill="#707070" data-original="#a1b7ff" style="" class=""/><path xmlns="http://www.w3.org/2000/svg" d="m392.574219 430.078125c-56.46875 0-102.402344-45.933594-102.402344-102.398437v-13.652344c0-3.769532 3.054687-6.828125 6.828125-6.828125 56.464844 0 102.398438 45.9375 102.398438 102.402343v13.652344c0 3.769532-3.050782 6.824219-6.824219 6.824219zm-88.746094-108.964844v6.566407c0 46.636718 36.160156 84.992187 81.917969 88.488281v-6.566407c0-46.636718-36.160156-84.992187-81.917969-88.488281zm0 0" fill="#000000" data-original="#54596e" style="" class=""/><path xmlns="http://www.w3.org/2000/svg" d="m160.464844 61.441406c-3.773438 0-6.824219-3.058594-6.824219-6.828125v-27.304687c0-3.773438 3.050781-6.828125 6.824219-6.828125 3.773437 0 6.828125 3.054687 6.828125 6.828125v27.304687c0 3.769531-3.054688 6.828125-6.828125 6.828125zm0 0" fill="#000000" data-original="#54596e" style="" class=""/></g></svg>
