<?xml version="1.0"?>
<svg xmlns="http://www.w3.org/2000/svg" xmlns:xlink="http://www.w3.org/1999/xlink" xmlns:svgjs="http://svgjs.com/svgjs" version="1.1" width="512" height="512" x="0" y="0" viewBox="0 0 433 433.49504" style="enable-background:new 0 0 512 512" xml:space="preserve" class=""><g><path xmlns="http://www.w3.org/2000/svg" d="m403.019531 416.429688v-43.480469c0-25-27.425781-45.265625-61.257812-45.265625h-265.507813c-38.207031 0-69.179687 22.882812-69.179687 51.113281v37.632813" fill="#61c5a8" data-original="#61c5a8" style="" class=""/><path xmlns="http://www.w3.org/2000/svg" d="m409.847656 416.429688v-43.480469c0-15.105469-8.332031-28.394531-20.714844-37.5-12.425781-9.164063-29.09375-14.582031-47.371093-14.597657h-265.507813c-20.464844.015626-39.113281 6.089844-52.976562 16.308594-13.8125 10.164063-23.03125 24.917969-23.03125 41.636719v37.632813c0 3.769531 3.058594 6.824218 6.828125 6.824218s6.828125-3.054687 6.828125-6.824218v-37.632813c0-11.511719 6.269531-22.316406 17.492187-30.652344 11.179688-8.28125 27.121094-13.648437 44.859375-13.636719h265.507813c15.554687-.011718 29.515625 4.703126 39.261719 11.921876 9.789062 7.28125 15.171874 16.625 15.171874 26.519531v43.480469c0 3.769531 3.054688 6.824218 6.824219 6.824218s6.828125-3.054687 6.828125-6.824218zm0 0" fill="#000000" data-original="#54596e" style="" class=""/><path xmlns="http://www.w3.org/2000/svg" d="m102.648438 204.800781v-81.917969h-83.667969c-8.308594 0-13.480469 9.003907-9.292969 16.179688l10.828125 18.566406c17.039063 29.210938 48.3125 47.171875 82.132813 47.171875zm0 0" fill="#61c5a8" data-original="#61c5a8" style="" class=""/><g xmlns="http://www.w3.org/2000/svg" fill="#54596e"><path d="m102.648438 204.800781h6.824218v-81.917969c0-1.796874-.726562-3.554687-1.996094-4.828124-1.269531-1.269532-3.03125-2-4.828124-2h-83.667969c-5.035157-.015626-9.589844 2.132812-12.675781 5.382812-3.101563 3.246094-4.921876 7.578125-4.929688 12.214844-.003906 2.972656.78125 6.066406 2.417969 8.851562l10.824219 18.5625c18.261718 31.308594 51.78125 50.5625 88.03125 50.5625 1.796874 0 3.554687-.730468 4.824218-2 1.273438-1.269531 2-3.03125 2-4.828125h-6.824218v-6.824219c-31.394532 0-60.421876-16.675781-76.238282-43.789062l-10.824218-18.5625c-.410157-.714844-.550782-1.328125-.554688-1.96875-.007812-.980469.417969-2.03125 1.132812-2.769531.734376-.734375 1.566407-1.164063 2.816407-1.179688h76.839843v75.09375h6.828126v-6.824219zm0 0" fill="#000000" data-original="#54596e" style="" class=""/><path d="m102.648438 177.496094v-27.308594h-42.335938c-4.199219 0-6.820312 3.003906-4.707031 5.394531l5.480469 6.191407c8.628906 9.734374 24.445312 15.722656 41.5625 15.722656zm0 0" fill="#000000" data-original="#54596e" style="" class=""/><path d="m102.648438 177.496094h6.824218v-27.308594c0-1.796875-.726562-3.554688-2-4.828125-1.269531-1.269531-3.027344-1.996094-4.824218-1.996094h-42.335938c-2.820312.011719-5.480469.726563-7.789062 2.296875-1.148438.789063-2.21875 1.816406-3.0625 3.179688-.84375 1.34375-1.433594 3.082031-1.429688 4.941406-.023438 2.398438 1.03125 4.753906 2.464844 6.328125l5.480468 6.1875c5.238282 5.898437 12.289063 10.335937 20.292969 13.371094 8.011719 3.027343 17.027344 4.648437 26.378907 4.652343 1.796874 0 3.554687-.730468 4.824218-2 1.273438-1.269531 2-3.027343 2-4.824218h-6.824218v-6.828125c-7.761719.003906-15.214844-1.367188-21.546876-3.769531-6.34375-2.390626-11.515624-5.8125-14.902343-9.652344l-5.480469-6.1875-3.082031 2.726562h4.050781c.023438-1.195312-.566406-2.320312-.972656-2.730468l-3.078125 2.730468h4.050781-4.238281l3.621093 2.238282c.316407-.5.621094-1.316407.617188-2.238282h-4.238281l3.621093 2.238282-2.066406-1.277344 1.058594 2.277344c.109375-.0625.515625-.238282 1.003906-1l-2.0625-1.28125 1.054688 2.28125-.195313-.421876.144531.441407.050782-.019531-.195313-.421876.144531.441407.304688-.027344h35.507812v20.480469h6.828126v-6.828125zm0 0" fill="#000000" data-original="#54596e" style="" class=""/></g><path xmlns="http://www.w3.org/2000/svg" d="m315.402344 204.800781v-81.917969h83.671875c8.300781 0 13.472656 9.003907 9.292969 16.179688l-10.832032 18.566406c-17.042968 29.207032-48.316406 47.171875-82.132812 47.171875" fill="#61c5a8" data-original="#61c5a8" style="" class=""/><path xmlns="http://www.w3.org/2000/svg" d="m315.402344 204.800781h6.824218v-75.09375h76.847657c1.246093.015625 2.078125.445313 2.8125 1.179688.714843.738281 1.144531 1.792969 1.132812 2.773437-.003906.636719-.144531 1.257813-.554687 1.96875l-10.828125 18.558594c-15.816407 27.113281-44.84375 43.789062-76.234375 43.789062v6.824219h6.824218-6.824218v6.828125c36.246094 0 69.765625-19.25 88.027344-50.558594l10.835937-18.570312c1.625-2.785156 2.410156-5.867188 2.40625-8.839844-.007813-4.636718-1.824219-8.972656-4.925781-12.21875-3.082032-3.25-7.632813-5.402344-12.671875-5.382812h-83.671875c-1.800782 0-3.558594.726562-4.828125 1.996094-1.273438 1.273437-2 3.03125-2 4.828124v81.921876c0 1.796874.726562 3.554687 2 4.824218 1.269531 1.273438 3.027343 2 4.828125 2z" fill="#000000" data-original="#54596e" style="" class=""/><path xmlns="http://www.w3.org/2000/svg" d="m300.621094 426.667969c0-50.898438-41.261719-92.160157-92.160156-92.160157-50.898438 0-92.160157 41.261719-92.160157 92.160157" fill="#707070" data-original="#a1b7ff" style="" class=""/><path xmlns="http://www.w3.org/2000/svg" d="m307.445312 426.667969c-.003906-54.671875-44.3125-98.984375-98.984374-98.984375-54.675782 0-98.984376 44.3125-98.988282 98.984375 0 3.769531 3.054688 6.828125 6.828125 6.828125 3.769531 0 6.824219-3.058594 6.824219-6.828125.003906-23.585938 9.542969-44.875 24.992188-60.339844 15.464843-15.453125 36.753906-24.988281 60.34375-24.996094 23.585937.003907 44.875 9.542969 60.335937 24.996094 15.453125 15.464844 24.992187 36.753906 24.996094 60.339844 0 3.769531 3.054687 6.828125 6.828125 6.828125 3.769531 0 6.828125-3.058594 6.824218-6.828125zm0 0" fill="#000000" data-original="#54596e" style="" class=""/><path xmlns="http://www.w3.org/2000/svg" d="m266.488281 426.667969c0-32.046875-25.980469-58.027344-58.027343-58.027344-32.046876 0-58.027344 25.980469-58.027344 58.027344" fill="#f66b6b" data-original="#55a6ff" style="" class=""/><path xmlns="http://www.w3.org/2000/svg" d="m273.3125 426.667969c-.003906-35.820313-29.035156-64.847657-64.851562-64.851563-35.820313.003906-64.851563 29.03125-64.855469 64.851563 0 3.769531 3.058593 6.828125 6.828125 6.828125 3.769531 0 6.824218-3.058594 6.824218-6.828125.003907-14.160157 5.722657-26.914063 14.996094-36.203125 9.289063-9.277344 22.046875-14.992188 36.207032-14.996094 14.160156.003906 26.914062 5.71875 36.203124 14.996094 9.273438 9.289062 14.992188 22.042968 14.996094 36.203125 0 3.769531 3.054688 6.828125 6.824219 6.828125 3.773437 0 6.828125-3.058594 6.828125-6.828125zm0 0" fill="#000000" data-original="#54596e" style="" class=""/><path xmlns="http://www.w3.org/2000/svg" d="m314.273438 177.496094v-27.308594h42.335937c4.199219 0 6.820313 3.003906 4.707031 5.394531l-5.480468 6.191407c-8.628907 9.734374-24.449219 15.722656-41.5625 15.722656" fill="#000000" data-original="#54596e" style="" class=""/><path xmlns="http://www.w3.org/2000/svg" d="m314.273438 177.496094h6.828124v-20.480469h35.507813l.296875.03125.414062-1.4375-1.011718 1 .601562.4375.414063-1.4375-1.015625 1 2.875-2.824219h-3.949219c-.003906 1.421875.667969 2.441406 1.070313 2.824219l2.871093-2.824219h-3.941406 4.039063l-3.082032-2.71875c-.394531.40625-.984375 1.511719-.957031 2.71875h4.039063l-3.082032-2.71875-5.472656 6.179688c-3.382812 3.839844-8.558594 7.261718-14.898438 9.652344-6.332031 2.402343-13.789062 3.773437-21.546874 3.769531v6.828125h6.824218-6.824218v6.824218c9.351562 0 18.367187-1.621093 26.378906-4.652343 8.003906-3.035157 15.054687-7.472657 20.289062-13.367188l5.484375-6.191406c1.429688-1.582031 2.484375-3.921875 2.460938-6.324219.003906-1.863281-.585938-3.597656-1.425781-4.945312-1.28125-2.039063-3.019532-3.339844-4.859376-4.203125-1.855468-.851563-3.878906-1.273438-5.996093-1.273438h-42.332031c-1.800782 0-3.554688.726563-4.828126 1.996094-1.273437 1.273437-2 3.03125-2 4.828125v27.308594c0 1.796875.726563 3.554687 2 4.828125 1.269532 1.269531 3.027344 1.996093 4.828126 1.996093z" fill="#000000" data-original="#54596e" style="" class=""/><path xmlns="http://www.w3.org/2000/svg" d="m327.925781 245.761719v-154.078125c0-58.175782-45.917969-84.855469-102.566406-84.855469h-33.800781c-56.644532 0-102.566406 26.679687-102.566406 84.855469v154.078125z" fill="#61c5a8" data-original="#61c5a8" style="" class=""/><path xmlns="http://www.w3.org/2000/svg" d="m327.925781 245.761719h6.828125v-154.078125c.003906-15.4375-3.0625-29.09375-8.746094-40.785156-8.515624-17.566407-22.871093-30.460938-40.375-38.730469-17.527343-8.296875-38.230468-12.1601565-60.269531-12.167969h-33.800781c-29.367188.015625-56.441406 6.855469-76.628906 21.980469-10.066406 7.554687-18.34375 17.222656-24.019532 28.917969-5.683593 11.691406-8.75 25.347656-8.746093 40.785156v154.078125c0 1.796875.730469 3.558593 2 4.828125 1.269531 1.269531 3.027343 2 4.824219 2h238.933593c1.796875 0 3.558594-.730469 4.828125-2 1.269532-1.269532 2-3.03125 2-4.828125h-6.828125v-6.828125h-232.105469v-147.25c.003907-13.652344 2.675782-25.144532 7.371094-34.816406 7.058594-14.480469 18.710938-25.117188 33.945313-32.359376 15.210937-7.222656 33.976562-10.859374 54.421875-10.855468h33.800781c27.277344-.015625 51.488281 6.484375 68.425781 19.246094 8.488282 6.386718 15.234375 14.296874 19.941406 23.96875 4.691407 9.671874 7.367188 21.164062 7.371094 34.816406v154.078125h6.828125v-6.828125z" fill="#000000" data-original="#54596e" style="" class=""/><path xmlns="http://www.w3.org/2000/svg" d="m225.460938 13.65625c-.035157 0-.066407 0-.101563 0h-2.34375c33.839844 11.210938 57.125 36.625 57.125 78.03125v147.246094h40.957031v-147.25c-.003906-13.652344-2.675781-25.144532-7.371094-34.816406-4.707031-9.671876-11.453124-17.582032-19.941406-23.96875-16.917968-12.746094-41.085937-19.242188-68.324218-19.242188" fill="#5eaf9c" data-original="#5eaf9c" style="" class=""/><path xmlns="http://www.w3.org/2000/svg" d="m225.359375 6.828125h-33.800781c-2.359375 0-4.671875.117187-6.992188.210937 13.734375.550782 26.722656 2.730469 38.449219 6.617188h2.347656.097657c27.242187 0 51.410156 6.496094 68.328124 19.242188 8.488282 6.386718 15.234376 14.296874 19.9375 23.96875 4.695313 9.675781 7.371094 21.167968 7.375 34.816406v147.25h-40.960937v6.828125h47.785156v-154.074219c0-58.179688-45.917969-84.859375-102.566406-84.859375" fill="#000000" data-original="#54596e" style="" class=""/><path xmlns="http://www.w3.org/2000/svg" d="m129.953125 232.109375h197.972656v46.230469c0 34.789062-28.203125 62.996094-63 62.996094h-126.585937c-34.792969 0-63-28.207032-63-62.996094v-46.230469h27.308594" fill="#61c5a8" data-original="#61c5a8" style="" class=""/><path xmlns="http://www.w3.org/2000/svg" d="m129.953125 238.933594h191.148437v39.40625c-.003906 15.53125-6.277343 29.527344-16.453124 39.714844-10.1875 10.175781-24.1875 16.449218-39.722657 16.453124h-126.585937c-15.53125-.003906-29.53125-6.277343-39.71875-16.453124-10.179688-10.1875-16.449219-24.183594-16.457032-39.714844v-39.40625h20.480469c3.769531 0 6.828125-3.054688 6.828125-6.824219s-3.058594-6.828125-6.828125-6.828125h-27.304687c-1.796875 0-3.558594.730469-4.828125 2-1.273438 1.269531-2 3.027344-2 4.828125v46.230469c.007812 38.5625 31.261719 69.816406 69.828125 69.820312h126.585937c38.566407-.003906 69.820313-31.257812 69.828125-69.820312v-46.230469c0-1.796875-.730468-3.554687-2-4.828125-1.269531-1.269531-3.027344-2-4.828125-2h-197.972656c-3.769531 0-6.824219 3.058594-6.824219 6.828125s3.054688 6.824219 6.824219 6.824219zm0 0" fill="#000000" data-original="#54596e" style="" class=""/><path xmlns="http://www.w3.org/2000/svg" d="m136.78125 177.496094v47.785156h34.132812zm0 0" fill="#ffffff" data-original="#ffffff" style=""/><path xmlns="http://www.w3.org/2000/svg" d="m280.140625 177.496094v47.785156h-34.132813zm0 0" fill="#ffffff" data-original="#ffffff" style=""/><path xmlns="http://www.w3.org/2000/svg" d="m232.355469 109.226562c0 15.082032 12.226562 27.308594 27.304687 27.308594 15.082032 0 27.308594-12.226562 27.308594-27.308594zm0 0" fill="#e9a503" data-original="#ffb8f2" style="" class=""/><path xmlns="http://www.w3.org/2000/svg" d="m232.355469 109.226562h-6.828125c.003906 18.855469 15.28125 34.128907 34.132812 34.136719 18.855469-.007812 34.128906-15.28125 34.132813-34.136719 0-1.796874-.726563-3.554687-1.996094-4.824218-1.269531-1.273438-3.03125-2-4.828125-2h-54.613281c-1.796875 0-3.558594.726562-4.828125 1.996094-1.273438 1.273437-2 3.03125-2 4.828124h6.828125v6.828126h54.613281v-6.828126h-6.828125c-.019531 11.308594-9.171875 20.460938-20.480469 20.480469-11.304687-.019531-20.457031-9.171875-20.480468-20.480469h-6.824219v6.828126zm0 0" fill="#000000" data-original="#54596e" style="" class=""/><path xmlns="http://www.w3.org/2000/svg" d="m129.953125 109.226562c0 15.082032 12.226563 27.308594 27.308594 27.308594 15.078125 0 27.304687-12.226562 27.304687-27.308594zm0 0" fill="#e9a503" data-original="#ffb8f2" style="" class=""/><path xmlns="http://www.w3.org/2000/svg" d="m129.953125 109.226562h-6.824219c.003906 18.855469 15.277344 34.128907 34.132813 34.136719 18.851562-.007812 34.128906-15.28125 34.132812-34.136719 0-1.796874-.730469-3.554687-2-4.824218-1.269531-1.273438-3.03125-2-4.828125-2h-54.613281c-1.796875 0-3.554687.726562-4.828125 1.996094-1.269531 1.273437-1.996094 3.03125-1.996094 4.828124h6.824219v6.828126h54.613281v-6.828126h-6.824218c-.023438 11.308594-9.175782 20.460938-20.480469 20.480469-11.308594-.019531-20.460938-9.171875-20.480469-20.480469h-6.828125v6.828126zm0 0" fill="#000000" data-original="#54596e" style="" class=""/><path xmlns="http://www.w3.org/2000/svg" d="m198.222656 170.667969c0-7.539063-3.058594-13.652344-6.828125-13.652344s-6.828125 6.113281-6.828125 13.652344c0 7.539062 3.058594 13.652343 6.828125 13.652343s6.828125-6.113281 6.828125-13.652343zm0 0" fill="#000000" data-original="#54596e" style="" class=""/><path xmlns="http://www.w3.org/2000/svg" d="m232.355469 170.667969c0-7.539063-3.058594-13.652344-6.828125-13.652344-3.769532 0-6.828125 6.113281-6.828125 13.652344 0 7.539062 3.058593 13.652343 6.828125 13.652343 3.769531 0 6.828125-6.113281 6.828125-13.652343zm0 0" fill="#000000" data-original="#54596e" style="" class=""/></g></svg>
